<?xml version="1.0" encoding="UTF-8"?>
<svg version="1.1" viewBox="0 0 2048 2048" width="128" height="128" xmlns="http://www.w3.org/2000/svg">
<path transform="translate(443,106)" d="m0 0h90l89 1 36 3 27 4 24 5 26 8 20 8 17 8 17 10 12 8 16 12 20 18 7 8 9 10 12 17 9 15 12 23 8 20 9 27 5 21 5 35 2 23 1 21 1 38v140l-2 43-3 27-4 28-5 23-12 36-9 20-10 19-18 27-9 11-7 8-8 7-8 8-13 10-14 10-18 10-27 13-37 12-26 6-33 5-35 3-21 1-74 1h-25l-93-1-30-2-31-4-29-6-24-7-28-11-24-12-21-14-14-11-13-12-16-16-13-17-10-15-10-18-11-23-6-17-7-24-6-27-4-26-3-32v-216l3-35 5-35 6-25 11-33 9-20 12-23 9-14 9-12 18-20 9-9 8-7 17-13 23-14 17-9 27-11 27-8 25-5 28-4 26-2zm42 127-62 1-36 2-26 3-24 6-21 8-14 8-15 11-12 12-10 13-9 16-8 19-6 19-4 19-3 26-1 16v198l2 27 4 27 6 22 8 20 8 15 12 16 11 11 15 11 12 7 24 10 21 6 25 4 23 2 14 1 40 1h58l87-1 31-2 25-4 24-6 21-8 14-7 12-9 12-10 7-8 8-10 8-13 7-16 5-15 5-22 3-22 2-35 1-115v-51l-1-33-2-23-5-29-5-17-9-21-9-16-10-13-14-14-16-10-16-8-16-6-21-6-27-4-11-1-24-1-71-1z" fill="#47AEF2"/>
<path transform="translate(1467,106)" d="m0 0h81l98 1 36 3 27 4 24 5 26 8 22 9 16 8 16 9 12 8 16 12 3 2v2l4 2 9 8v2l3 1 7 8 10 11 12 17 9 15 12 23 10 26 8 25 5 24 4 29 2 23 1 27 1 103v50l-1 40-2 30-5 40-4 20-6 22-8 23-10 22-10 18-15 23-11 14-22 22-14 11-14 10-22 12-21 10-36 12-24 6-30 5-28 3-35 2h-194l-29-2-31-4-29-6-24-7-28-11-24-12-21-14-14-11-13-12-7-6-7-8-11-13-12-18-11-19-12-25-10-30-8-32-4-24-3-25-1-13v-221l3-34 5-33 6-25 10-30 9-21 10-20 14-22 10-13 7-7 7-8 12-12 11-9 13-10 22-13 19-10 25-10 23-7 29-6 28-4 26-2zm36 127-57 1-35 2-26 3-24 6-21 8-14 8-16 12-11 11-10 13-9 16-8 19-7 22-3 16-3 25-1 17v198l2 27 4 27 6 22 8 20 8 15 12 16 11 11 15 11 12 7 24 10 21 6 25 4 38 3 46 1h44l95-1 30-2 25-4 24-6 21-8 14-7 12-9 10-9 10-10 11-15 8-16 6-15 6-23 4-29 2-36v-195l-3-31-5-27-7-21-9-19-9-14-8-10-13-13-16-10-16-8-16-6-21-6-27-4-11-1-23-1-68-1z" fill="#47AEF2"/>
<path transform="translate(446,1130)" d="m0 0h55l121 1 36 3 27 4 24 5 24 7 29 12 21 11 17 11 17 13 10 9 11 10 7 8 11 13 12 18 10 17 11 23 7 19 7 21 5 21 5 35 2 23 1 21 1 44v127l-1 32-2 28-5 39-5 25-8 26-7 19-12 25-9 15-12 18-7 9-9 10-17 17-17 13-10 7-19 11-23 11-19 7-30 9-24 5-36 5-26 2-22 1h-191l-29-2-32-4-29-6-24-7-28-11-24-12-18-12-13-10-14-12-18-18-11-14-14-21-10-18-10-21-6-17-6-19-7-31-5-35-2-25v-214l3-36 5-35 6-25 11-33 9-20 12-23 9-14 9-12 18-20 10-10 11-9 10-8 24-15 21-11 25-10 27-8 25-5 27-4 26-2zm26 127-52 1-34 2-25 3-21 5-22 8-15 8-17 13-11 11-11 15-8 14-8 19-6 19-4 19-3 26-1 15v200l2 27 4 26 6 22 8 20 8 15 12 16 10 10 16 12 23 12 25 9 25 5 15 2 26 2 23 1h130l37-1 32-2 24-4 24-6 21-8 12-6 14-10 10-9 10-10 13-18 8-17 7-21 4-18 3-23 1-12 1-26 1-124v-37l-1-36-3-29-5-27-7-20-10-21-8-12-8-10-13-13-14-9-15-8-15-6-24-7-27-4-10-1-24-1-61-1z" fill="#47AEF2"/>
<path transform="translate(1469,1130)" d="m0 0h62l115 1 36 3 27 4 24 5 24 7 29 12 19 10 13 8 18 13 11 9 7 7 7 6 7 8 9 10 12 17 9 15 12 23 10 26 8 25 6 29 4 33 1 14 1 27 1 139-1 53-2 31-5 40-4 20-6 21-8 24-10 22-10 18-15 23-8 10-9 10-16 16-13 10-14 10-19 11-23 11-25 9-29 8-25 5-30 4-26 2-22 1-70 1h-23l-98-1-29-2-32-4-29-6-24-7-28-11-24-12-18-12-17-13-13-12-16-16-13-17-10-15-10-18-11-23-6-17-8-27-6-28-4-29-2-23v-219l3-36 5-33 6-25 10-30 9-21 10-20 14-22 10-13 7-7 7-8 12-12 11-9 13-10 27-16 21-10 24-9 21-6 25-5 27-4 26-2zm26 127-52 1-33 2-25 3-21 5-24 9-14 8-16 12-11 11-11 15-8 14-8 19-6 19-3 12-4 32-1 16v200l2 27 4 26 6 22 8 20 8 15 12 16 10 10 16 12 23 12 25 9 25 5 15 2 26 2 24 1h129l38-1 31-2 24-4 21-5 22-8 14-7 14-10 10-9 9-9 12-16 8-16 6-15 6-23 4-29 1-12 1-28v-192l-2-24-5-29-6-20-9-20-8-14-10-13-14-14-16-10-16-8-16-6-25-7-32-4-23-1-58-1z" fill="#47AEF2"/>
</svg>
