<?xml version="1.0" encoding="UTF-8"?>
<svg version="1.1" viewBox="0 0 2048 2048" width="128" height="128" xmlns="http://www.w3.org/2000/svg">
<path transform="translate(1610,171)" d="m0 0h51l27 4 25 7 24 10 21 11 15 10 13 10 14 12 18 18 13 17 9 14 10 18 8 17 9 24 5 22 3 22 1 24v1187l-1 49-2 22-4 24-6 21-11 26-13 24-8 11-9 12-13 15-14 14-14 11-17 12-16 9-15 7-24 9-23 6-27 5-9 1h-33l-22-3-16-3-22-7-15-6-16-8-17-9-13-9-13-10-13-12-17-17-12-16-10-15-10-18-10-21-8-24-4-16-3-24-1-17-1-49v-1145l1-52 3-27 4-17 8-24 11-24 10-18 12-18 8-10 10-11 5-6 8-7 4-2v-2l14-11 15-10 17-10 17-9 21-8 17-5 22-4zm13 130-14 2-14 5-17 9-12 9-15 15-9 13-8 16-4 13-3 21-1 52v1172l2 25 4 19 5 12 7 12 12 14 7 7 12 9 18 10 21 7 12 2h21l19-4 13-5 19-10 11-9 8-7 9-12 6-9 8-19 3-14 1-8 1-21v-1215l-2-24-3-13-9-19-8-12-11-12-9-8-14-9-15-7-18-5-15-2z" fill="#49B1F4"/>
<path transform="translate(1009,695)" d="m0 0h25l29 3 24 5 21 7 20 9 17 9 18 12 14 11 14 12 12 12 13 17 7 10 9 15 10 19 12 31 5 18 3 21 1 17 1 199v322l-1 187-1 27-3 26-7 25-9 24-8 16-10 18-10 14-9 11-14 15-14 13-13 10-15 10-25 13-28 11-23 6-28 5-9 1h-33l-22-3-19-4-25-8-20-9-15-8-21-14-16-13-15-14-14-15-13-18-9-15-12-23-7-17-7-25-4-21-2-18-1-21-1-495v-97l1-96 2-36 3-19 4-16 10-27 9-19 8-14 7-11 11-14 12-14 17-17 14-11 15-11 21-12 16-8 19-7 17-5 20-4zm13 131-23 2-15 4-16 8-12 9-10 9-10 11-10 16-7 16-4 19-1 12-1 66v626l2 26 3 16 4 12 8 16 10 13 7 8 12 9 17 10 14 6 17 4 7 1h18l17-3 18-6 15-8 12-9 15-15 11-16 6-15 5-23 1-9v-718l-3-16-6-16-7-14-8-11-9-10-14-11-14-8-15-6-11-3z" fill="#49B1F4"/>
<path transform="translate(390,1221)" d="m0 0h39l27 3 23 5 19 7 25 12 20 12 15 11 11 9 13 12 7 7 9 11 11 15 11 18 8 15 10 23 7 22 4 18 2 28v182l-1 28-2 19-5 21-6 19-7 16-12 23-16 24-10 13-12 13-13 12-13 10-19 12-18 10-29 12-22 6-26 5-15 2h-34l-28-4-23-6-17-6-24-11-23-14-14-11-14-12-16-16-9-11-10-13-13-21-8-15-10-26-6-19-5-29-1-10v-208l3-23 5-24 6-18 11-24 10-18 7-11 11-15 11-13 19-19 17-13 20-13 18-10 21-9 18-6 25-5zm6 131-16 3-14 5-15 8-14 11-7 7-9 12-11 21-5 16-3 21-1 18-1 103v33l1 27 3 22 5 16 9 19 8 11 14 14 10 7 14 8 11 5 13 4 12 2h20l20-4 16-6 17-9 11-9 13-13 10-15 5-10 6-25 1-8 1-25v-163l-2-19-6-20-8-16-7-10-9-10-7-7-13-9-16-8-16-5-12-2z" fill="#49B1F4"/>
</svg>
